<?xml version="1.0" encoding="UTF-8" standalone="no"?>
<!-- Created with Inkscape (http://www.inkscape.org/) -->

<svg
   version="1.1"
   id="svg2"
   xml:space="preserve"
   width="25400"
   height="11201.333"
   viewBox="0 0 25400 11201.333"
   xmlns="http://www.w3.org/2000/svg"
   xmlns:svg="http://www.w3.org/2000/svg"><defs
     id="defs6" /><g
     id="g8"
     transform="matrix(1.3333333,0,0,-1.3333333,0,11201.333)"><g
       id="g10"
       transform="scale(0.1)"><g
         id="g12"
         transform="scale(8.52469)"><path
           d="M 8821.72,968.95 H 1343.45 V 5895.81 H 16300 V 968.95 Z"
           style="fill:#cccccc;fill-opacity:1;fill-rule:evenodd;stroke:none"
           id="path14" /></g><g
         id="g16"
         transform="scale(8.75521)"><path
           d="M 8589.45,8396.14 16300,5654.06 H 879.761 Z"
           style="fill:#cccccc;fill-opacity:1;fill-rule:evenodd;stroke:none"
           id="path18" /></g><g
         id="g20"
         transform="scale(4.72638)"><path
           d="M 8307.1,12414.4 314.194,9616.77 0,10514.9 15985.8,16110.1 16300,15212 Z"
           style="fill:#333333;fill-opacity:1;fill-rule:evenodd;stroke:none"
           id="path22" /></g><g
         id="g24"
         transform="scale(9.26089)"><path
           d="M 12060.4,6335.78 7981.14,7763.56 8141.5,8221.94 16300,5366.38 16139.6,4908.01 Z"
           style="fill:#333333;fill-opacity:1;fill-rule:evenodd;stroke:none"
           id="path26" /></g><g
         id="g28"
         transform="scale(5.67193)"><path
           d="M 9952.96,3175.28 H 3605.91 V 8014.9 H 16300 V 3175.28 Z"
           style="fill:#333333;fill-opacity:1;fill-rule:evenodd;stroke:none"
           id="path30" /></g><g
         id="g32"
         transform="scale(5.67193)"><path
           d="M 9952.96,3175.28 H 3605.91 V 8014.9 H 16300 V 3175.28 Z"
           style="fill:none;stroke:#808080;stroke-width:210.246;stroke-linecap:butt;stroke-linejoin:round;stroke-miterlimit:4;stroke-dasharray:none;stroke-opacity:1"
           id="path34" /></g><g
         id="g36"
         transform="scale(7.88052)"><path
           d="M 14682.1,1143.33 H 13064.2 V 6282.58 H 16300 V 1143.33 Z"
           style="fill:#333333;fill-opacity:1;fill-rule:evenodd;stroke:none"
           id="path38" /></g><g
         id="g40"
         transform="scale(4.24555)"><path
           d="m 13296.9,5302.02 h -3003.2 v 706.62 H 16300 v -706.62 z"
           style="fill:#666666;fill-opacity:1;fill-rule:evenodd;stroke:none"
           id="path42" /></g><g
         id="g44"
         transform="scale(3.92347)"><path
           d="M 14388.4,4685.91 H 12476.9 V 6215.17 H 16300 V 4685.91 Z"
           style="fill:#666666;fill-opacity:1;fill-rule:evenodd;stroke:none"
           id="path46" /></g><g
         id="g48"
         transform="scale(3.46334)"><path
           d="M 16300,13126 V 5200.18"
           style="fill:none;stroke:#808080;stroke-width:175.409;stroke-linecap:butt;stroke-linejoin:round;stroke-miterlimit:4;stroke-dasharray:none;stroke-opacity:1"
           id="path50" /></g><g
         id="g52"
         transform="scale(7.87086)"><path
           d="M 15175.6,5151.6 V 0.317627 L 16300,1139.96 v 5150.33 z"
           style="fill:#808080;fill-opacity:1;fill-rule:evenodd;stroke:none"
           id="path54" /></g><g
         id="g56"
         transform="scale(7.5589)"><path
           d="m 16300,2877.74 c 0,-51.6 -8.9,-103.19 -26.8,-148.84 -16.9,-44.65 -42.7,-82.35 -72.4,-109.14 -30.8,-25.8 -64.5,-39.69 -99.2,-39.69 -35.8,0 -69.5,13.89 -100.3,39.69 -29.7,26.79 -55.5,64.49 -72.4,109.14 -17.8,45.65 -26.8,97.24 -26.8,148.84 0,52.58 9,104.18 26.8,149.82 16.9,44.65 42.7,82.35 72.4,109.14 30.8,25.8 64.5,39.69 100.3,39.69 34.7,0 68.4,-13.89 99.2,-39.69 29.7,-26.79 55.5,-64.49 72.4,-109.14 17.9,-45.64 26.8,-97.24 26.8,-149.82 z"
           style="fill:#b2b2b2;fill-opacity:1;fill-rule:evenodd;stroke:none"
           id="path58" /></g><g
         id="g60"
         transform="scale(11.6867)"><path
           d="M 12362.2,6033.38 H 8423.71 V 7188.54 H 16300 V 6033.38 Z"
           style="fill:#cccccc;fill-opacity:1;fill-rule:evenodd;stroke:none"
           id="path62" /></g><g
         id="g64"
         transform="scale(9.72101)"><path
           d="m 16145.7,772.553 h -154.3 V 7253.36 H 16300 V 772.553 Z"
           style="fill:#333333;fill-opacity:1;fill-rule:evenodd;stroke:none"
           id="path66" /></g></g></g></svg>
