<?xml version="1.0" encoding="UTF-8" standalone="no"?>
<!-- Created with Inkscape (http://www.inkscape.org/) -->

<svg
   version="1.1"
   id="svg2"
   xml:space="preserve"
   width="25506.668"
   height="10650.667"
   viewBox="0 0 25506.668 10650.667"
   xmlns="http://www.w3.org/2000/svg"
   xmlns:svg="http://www.w3.org/2000/svg"><defs
     id="defs6" /><g
     id="g8"
     transform="matrix(1.3333333,0,0,-1.3333333,0,10650.667)"><g
       id="g10"
       transform="scale(0.1)"><g
         id="g12"
         transform="scale(8.52469)"><path
           d="M 8821.72,87.9797 H 1343.45 V 5014.84 H 16300 V 87.9797 Z"
           style="fill:#d3bba4;fill-opacity:1;fill-rule:evenodd;stroke:none"
           id="path14" /></g><g
         id="g16"
         transform="scale(8.75521)"><path
           d="M 8589.45,7538.36 16300,4796.28 H 879.761 Z"
           style="fill:#d3bba4;fill-opacity:1;fill-rule:evenodd;stroke:none"
           id="path18" /></g><g
         id="g20"
         transform="scale(4.72638)"><path
           d="M 8307.1,10827 314.194,8029.4 0,8927.55 15985.8,14522.7 16300,13624.6 Z"
           style="fill:#611729;fill-opacity:1;fill-rule:evenodd;stroke:none"
           id="path22" /></g><g
         id="g24"
         transform="scale(9.26089)"><path
           d="M 12060.4,5525.66 7981.14,6953.44 8141.5,7411.81 16300,4556.26 16139.6,4097.88 Z"
           style="fill:#611729;fill-opacity:1;fill-rule:evenodd;stroke:none"
           id="path26" /></g><g
         id="g28"
         transform="scale(5.67193)"><path
           d="M 9952.96,1851.22 H 3605.91 V 6690.84 H 16300 V 1851.22 Z"
           style="fill:#ffffd7;fill-opacity:1;fill-rule:evenodd;stroke:none"
           id="path30" /></g><g
         id="g32"
         transform="scale(5.67193)"><path
           d="M 9952.96,1851.22 H 3605.91 V 6690.84 H 16300 V 1851.22 Z"
           style="fill:none;stroke:#3465a4;stroke-width:210.246;stroke-linecap:butt;stroke-linejoin:round;stroke-miterlimit:4;stroke-dasharray:none;stroke-opacity:1"
           id="path34" /></g><g
         id="g36"
         transform="scale(7.88052)"><path
           d="M 14682.1,190.343 H 13064.2 V 5329.6 H 16300 V 190.343 Z"
           style="fill:#946c46;fill-opacity:1;fill-rule:evenodd;stroke:none"
           id="path38" /></g><g
         id="g40"
         transform="scale(6.68466)"><path
           d="m 16300,3252.6 c 0,-58.35 -15.7,-116.69 -44.9,-168.3 -30.3,-50.49 -72.9,-93.12 -123.4,-123.42 -51.6,-29.17 -109.9,-44.88 -168.3,-44.88 -59.5,0 -117.8,15.71 -169.4,44.88 -50.5,30.3 -93.1,72.93 -123.4,123.42 -29.2,51.61 -44.9,109.95 -44.9,168.3 0,59.46 15.7,117.8 44.9,169.41 30.3,50.49 72.9,93.13 123.4,123.42 51.6,29.17 109.9,44.88 169.4,44.88 58.4,0 116.7,-15.71 168.3,-44.88 50.5,-30.29 93.1,-72.93 123.4,-123.42 29.2,-51.61 44.9,-109.95 44.9,-169.41 z"
           style="fill:#b2b2b2;fill-opacity:1;fill-rule:evenodd;stroke:none"
           id="path42" /></g><g
         id="g44"
         transform="scale(4.24555)"><path
           d="m 13296.9,3533.11 h -3003.2 v 706.62 H 16300 v -706.62 z"
           style="fill:#333333;fill-opacity:1;fill-rule:evenodd;stroke:none"
           id="path46" /></g><g
         id="g48"
         transform="scale(3.92347)"><path
           d="M 14388.4,2771.78 H 12476.9 V 4301.04 H 16300 V 2771.78 Z"
           style="fill:#333333;fill-opacity:1;fill-rule:evenodd;stroke:none"
           id="path50" /></g><g
         id="g52"
         transform="scale(3.46334)"><path
           d="M 16300,10957.6 V 3031.75"
           style="fill:none;stroke:#3465a4;stroke-width:175.409;stroke-linecap:butt;stroke-linejoin:round;stroke-miterlimit:4;stroke-dasharray:none;stroke-opacity:1"
           id="path54" /></g><g
         id="g56"
         transform="scale(2.63558)"><path
           d="m 16300,9387.87 c 0,-247.58 -65.5,-495.15 -190.7,-711.42 -125.2,-216.27 -304.4,-395.55 -520.7,-520.76 -216.3,-125.21 -463.9,-190.66 -711.4,-190.66 -250.5,0 -498,65.45 -714.3,190.66 -216.3,125.21 -395.5,304.49 -520.8,520.76 -125.2,216.27 -190.6,463.84 -190.6,711.42 0,250.42 65.4,497.99 190.6,714.23 125.3,216.3 304.5,395.6 520.8,520.8 216.3,125.2 463.8,190.6 714.3,190.6 247.5,0 495.1,-65.4 711.4,-190.6 216.3,-125.2 395.5,-304.5 520.7,-520.8 125.2,-216.24 190.7,-463.81 190.7,-714.23 z"
           style="fill:#333333;fill-opacity:1;fill-rule:evenodd;stroke:none"
           id="path58" /></g><g
         id="g60"
         transform="scale(4.75215)"><path
           d="m 16300,5206.59 c 0,-137.3 -36.3,-274.61 -105.7,-394.55 -69.5,-119.95 -168.9,-219.38 -288.9,-288.82 -119.9,-69.44 -257.2,-105.74 -394.5,-105.74 -138.9,0 -276.2,36.3 -396.2,105.74 -119.9,69.44 -219.3,168.87 -288.8,288.82 -69.4,119.94 -105.7,257.25 -105.7,394.55 0,138.89 36.3,276.19 105.7,396.14 69.5,119.95 168.9,219.38 288.8,288.82 120,69.44 257.3,105.74 396.2,105.74 137.3,0 274.6,-36.3 394.5,-105.74 120,-69.44 219.4,-168.87 288.9,-288.82 69.4,-119.95 105.7,-257.25 105.7,-396.14 z"
           style="fill:#333333;fill-opacity:1;fill-rule:evenodd;stroke:none"
           id="path62" /></g><g
         id="g64"
         transform="scale(2.63558)"><path
           d="M 14874.3,10386.7 16300,4123.38 h -2848.5 z"
           style="fill:#333333;fill-opacity:1;fill-rule:evenodd;stroke:none"
           id="path66" /></g><g
         id="g68"
         transform="scale(4.75261)"><path
           d="M 15509.4,5758.42 16300,2285.06 h -1579.7 z"
           style="fill:#333333;fill-opacity:1;fill-rule:evenodd;stroke:none"
           id="path70" /></g><g
         id="g72"
         transform="scale(9.72101)"><path
           d="m 16145.7,0 h -154.3 V 6480.81 H 16300 V 0 Z"
           style="fill:#611729;fill-opacity:1;fill-rule:evenodd;stroke:none"
           id="path74" /></g><g
         id="g76"
         transform="scale(11.6871)"><path
           d="M 12225,5391.19 H 8150 v 1375.24 h 8150 V 5391.19 Z"
           style="fill:#d3bba4;fill-opacity:1;fill-rule:evenodd;stroke:none"
           id="path78" /></g><g
         id="g80"
         transform="scale(11.6871)"><path
           d="M 12225,5391.19 H 8150 v 1375.24 h 8150 V 5391.19 Z"
           style="fill:none;stroke:#611729;stroke-width:136.047;stroke-linecap:butt;stroke-linejoin:round;stroke-miterlimit:4;stroke-dasharray:none;stroke-opacity:1"
           id="path82" /></g></g></g></svg>
