<?xml version="1.0" encoding="UTF-8" standalone="no"?>
<!-- Created with Inkscape (http://www.inkscape.org/) -->

<svg
   version="1.1"
   id="svg2"
   xml:space="preserve"
   width="25400"
   height="10200"
   viewBox="0 0 25400 10200"
   xmlns="http://www.w3.org/2000/svg"
   xmlns:svg="http://www.w3.org/2000/svg"><defs
     id="defs6" /><g
     id="g8"
     transform="matrix(1.3333333,0,0,-1.3333333,0,10200)"><g
       id="g10"
       transform="scale(0.1)"><g
         id="g12"
         transform="scale(8.52469)"><path
           d="M 8821.72,87.9797 H 1343.45 V 5014.84 H 16300 V 87.9797 Z"
           style="fill:#cccccc;fill-opacity:1;fill-rule:evenodd;stroke:none"
           id="path14" /></g><g
         id="g16"
         transform="scale(8.75521)"><path
           d="M 8589.45,7538.36 16300,4796.28 H 879.761 Z"
           style="fill:#cccccc;fill-opacity:1;fill-rule:evenodd;stroke:none"
           id="path18" /></g><g
         id="g20"
         transform="scale(4.72638)"><path
           d="M 8307.1,10825.4 314.194,8027.81 0,8925.96 15985.8,14521.2 16300,13623 Z"
           style="fill:#333333;fill-opacity:1;fill-rule:evenodd;stroke:none"
           id="path22" /></g><g
         id="g24"
         transform="scale(9.26089)"><path
           d="M 12060.4,5524.85 7981.14,6952.63 8141.5,7411 16300,4555.45 16139.6,4097.07 Z"
           style="fill:#333333;fill-opacity:1;fill-rule:evenodd;stroke:none"
           id="path26" /></g><g
         id="g28"
         transform="scale(5.67193)"><path
           d="M 9952.96,1851.22 H 3605.91 V 6690.84 H 16300 V 1851.22 Z"
           style="fill:#eeeeee;fill-opacity:1;fill-rule:evenodd;stroke:none"
           id="path30" /></g><g
         id="g32"
         transform="scale(5.67193)"><path
           d="M 9952.96,1851.22 H 3605.91 V 6690.84 H 16300 V 1851.22 Z"
           style="fill:none;stroke:#808080;stroke-width:210.246;stroke-linecap:butt;stroke-linejoin:round;stroke-miterlimit:4;stroke-dasharray:none;stroke-opacity:1"
           id="path34" /></g><g
         id="g36"
         transform="scale(7.88052)"><path
           d="M 14682.1,190.343 H 13064.2 V 5329.6 H 16300 V 190.343 Z"
           style="fill:#808080;fill-opacity:1;fill-rule:evenodd;stroke:none"
           id="path38" /></g><g
         id="g40"
         transform="scale(4.24555)"><path
           d="m 13296.9,3533.11 h -3003.2 v 706.62 H 16300 v -706.62 z"
           style="fill:#666666;fill-opacity:1;fill-rule:evenodd;stroke:none"
           id="path42" /></g><g
         id="g44"
         transform="scale(3.92347)"><path
           d="M 14388.4,2771.78 H 12476.9 V 4301.04 H 16300 V 2771.78 Z"
           style="fill:#666666;fill-opacity:1;fill-rule:evenodd;stroke:none"
           id="path46" /></g><g
         id="g48"
         transform="scale(3.46334)"><path
           d="M 16300,10957.6 V 3031.75"
           style="fill:none;stroke:#808080;stroke-width:175.409;stroke-linecap:butt;stroke-linejoin:round;stroke-miterlimit:4;stroke-dasharray:none;stroke-opacity:1"
           id="path50" /></g><g
         id="g52"
         transform="scale(11.6867)"><path
           d="M 12362.2,5390.76 H 8423.71 V 6545.93 H 16300 V 5390.76 Z"
           style="fill:#cccccc;fill-opacity:1;fill-rule:evenodd;stroke:none"
           id="path54" /></g><g
         id="g56"
         transform="scale(9.72101)"><path
           d="m 16145.7,0 h -154.3 V 6480.81 H 16300 V 0 Z"
           style="fill:#333333;fill-opacity:1;fill-rule:evenodd;stroke:none"
           id="path58" /></g><g
         id="g60"
         transform="scale(2.63604)"><path
           d="m 16300,9383.38 c 0,-247.53 -65.4,-495.06 -190.6,-711.29 -125.2,-216.23 -304.5,-395.48 -520.7,-520.67 -216.2,-125.18 -463.8,-190.62 -711.3,-190.62 -250.4,0 -497.9,65.44 -714.1,190.62 -216.3,125.19 -395.5,304.44 -520.7,520.67 -125.2,216.23 -190.6,463.76 -190.6,711.29 0,250.38 65.4,497.91 190.6,714.12 125.2,216.3 304.4,395.5 520.7,520.7 216.2,125.2 463.7,190.6 714.1,190.6 247.5,0 495.1,-65.4 711.3,-190.6 216.2,-125.2 395.5,-304.4 520.7,-520.7 125.2,-216.21 190.6,-463.74 190.6,-714.12 z"
           style="fill:#666666;fill-opacity:1;fill-rule:evenodd;stroke:none"
           id="path62" /></g><g
         id="g64"
         transform="scale(2.63604)"><path
           d="M 14874.6,10382 16300,4119.81 h -2848 z"
           style="fill:#666666;fill-opacity:1;fill-rule:evenodd;stroke:none"
           id="path66" /></g><g
         id="g68"
         transform="scale(6.68512)"><path
           d="m 16300,3251.25 c 0,-58.34 -15.7,-116.68 -44.9,-168.28 -30.3,-50.49 -72.9,-93.12 -123.4,-123.41 -51.6,-29.17 -109.9,-44.88 -168.3,-44.88 -59.4,0 -117.8,15.71 -169.4,44.88 -50.5,30.29 -93.1,72.92 -123.4,123.41 -29.2,51.6 -44.9,109.94 -44.9,168.28 0,59.46 15.7,117.8 44.9,169.41 30.3,50.48 72.9,93.11 123.4,123.4 51.6,29.17 110,44.88 169.4,44.88 58.4,0 116.7,-15.71 168.3,-44.88 50.5,-30.29 93.1,-72.92 123.4,-123.4 29.2,-51.61 44.9,-109.95 44.9,-169.41 z"
           style="fill:#b2b2b2;fill-opacity:1;fill-rule:evenodd;stroke:none"
           id="path70" /></g></g></g></svg>
