<?xml version="1.0" encoding="UTF-8" standalone="no"?>
<!-- Created with Inkscape (http://www.inkscape.org/) -->

<svg
   version="1.1"
   id="svg2"
   xml:space="preserve"
   width="25506.668"
   height="11653.333"
   viewBox="0 0 25506.668 11653.333"
   xmlns="http://www.w3.org/2000/svg"
   xmlns:svg="http://www.w3.org/2000/svg"><defs
     id="defs6" /><g
     id="g8"
     transform="matrix(1.3333333,0,0,-1.3333333,0,11653.333)"><g
       id="g10"
       transform="scale(0.1)"><g
         id="g12"
         transform="scale(8.52469)"><path
           d="M 8821.72,970.123 H 1343.45 V 5896.99 H 16300 V 970.123 Z"
           style="fill:#d3bba4;fill-opacity:1;fill-rule:evenodd;stroke:none"
           id="path14" /></g><g
         id="g16"
         transform="scale(8.75521)"><path
           d="M 8589.45,8397.28 16300,5655.2 H 879.761 Z"
           style="fill:#d3bba4;fill-opacity:1;fill-rule:evenodd;stroke:none"
           id="path18" /></g><g
         id="g20"
         transform="scale(4.72638)"><path
           d="M 8307.1,12418.1 314.194,9620.47 0,10518.6 l 15985.8,5595.2 314.2,-898.1 z"
           style="fill:#611729;fill-opacity:1;fill-rule:evenodd;stroke:none"
           id="path22" /></g><g
         id="g24"
         transform="scale(9.26089)"><path
           d="M 12060.4,6337.67 7981.14,7765.45 8141.5,8223.83 16300,5368.27 16139.6,4909.9 Z"
           style="fill:#611729;fill-opacity:1;fill-rule:evenodd;stroke:none"
           id="path26" /></g><g
         id="g28"
         transform="scale(5.67193)"><path
           d="M 9952.96,3177.05 H 3605.91 V 8016.67 H 16300 V 3177.05 Z"
           style="fill:#ffffd7;fill-opacity:1;fill-rule:evenodd;stroke:none"
           id="path30" /></g><g
         id="g32"
         transform="scale(5.67193)"><path
           d="M 9952.96,3177.05 H 3605.91 V 8016.67 H 16300 V 3177.05 Z"
           style="fill:none;stroke:#3465a4;stroke-width:210.246;stroke-linecap:butt;stroke-linejoin:round;stroke-miterlimit:4;stroke-dasharray:none;stroke-opacity:1"
           id="path34" /></g><g
         id="g36"
         transform="scale(4.24555)"><path
           d="M 13296.9,5304.37 H 10293.7 V 6011 H 16300 v -706.63 z"
           style="fill:#333333;fill-opacity:1;fill-rule:evenodd;stroke:none"
           id="path38" /></g><g
         id="g40"
         transform="scale(3.92347)"><path
           d="M 14388.4,4688.46 H 12476.9 V 6217.72 H 16300 V 4688.46 Z"
           style="fill:#333333;fill-opacity:1;fill-rule:evenodd;stroke:none"
           id="path42" /></g><g
         id="g44"
         transform="scale(3.46334)"><path
           d="M 16300,13128.9 V 5203.06"
           style="fill:none;stroke:#3465a4;stroke-width:175.409;stroke-linecap:butt;stroke-linejoin:round;stroke-miterlimit:4;stroke-dasharray:none;stroke-opacity:1"
           id="path46" /></g><g
         id="g48"
         transform="scale(2.63558)"><path
           d="m 16300,12241.1 c 0,-247.5 -65.5,-495.1 -190.7,-711.4 -125.2,-216.3 -304.4,-395.5 -520.7,-520.8 -216.3,-125.2 -463.9,-190.6 -711.4,-190.6 -250.5,0 -498,65.4 -714.3,190.6 -216.3,125.3 -395.5,304.5 -520.8,520.8 -125.2,216.3 -190.6,463.9 -190.6,711.4 0,250.4 65.4,498 190.6,714.3 125.3,216.3 304.5,395.5 520.8,520.7 216.3,125.3 463.8,190.7 714.3,190.7 247.5,0 495.1,-65.4 711.4,-190.7 216.3,-125.2 395.5,-304.4 520.7,-520.7 125.2,-216.3 190.7,-463.9 190.7,-714.3 z"
           style="fill:#333333;fill-opacity:1;fill-rule:evenodd;stroke:none"
           id="path50" /></g><g
         id="g52"
         transform="scale(2.63558)"><path
           d="M 14874.3,13240 16300,6976.63 h -2848.5 z"
           style="fill:#333333;fill-opacity:1;fill-rule:evenodd;stroke:none"
           id="path54" /></g><g
         id="g56"
         transform="scale(9.72101)"><path
           d="m 16145.7,773.582 h -154.3 V 7254.39 H 16300 V 773.582 Z"
           style="fill:#611729;fill-opacity:1;fill-rule:evenodd;stroke:none"
           id="path58" /></g><g
         id="g60"
         transform="scale(7.88052)"><path
           d="M 14682.1,1144.59 H 13064.2 V 6283.85 H 16300 V 1144.59 Z"
           style="fill:#ffffd7;fill-opacity:1;fill-rule:evenodd;stroke:none"
           id="path62" /></g><g
         id="g64"
         transform="scale(7.90261)"><path
           d="M 15180.1,5131.22 V 0.632703 L 16300,1135.7 v 5129.64 z"
           style="fill:#946c46;fill-opacity:1;fill-rule:evenodd;stroke:none"
           id="path66" /></g><g
         id="g68"
         transform="scale(7.5589)"><path
           d="m 16300,2878.07 c 0,-51.6 -8.9,-103.19 -26.8,-148.84 -16.9,-44.64 -42.7,-82.35 -72.4,-109.14 -30.8,-25.8 -64.5,-39.69 -99.2,-39.69 -35.8,0 -69.5,13.89 -100.3,39.69 -29.7,26.79 -55.5,64.5 -72.4,109.14 -17.8,45.65 -26.8,97.24 -26.8,148.84 0,52.58 9,104.18 26.8,149.82 16.9,44.65 42.7,82.35 72.4,109.14 30.8,25.8 64.5,39.69 100.3,39.69 34.7,0 68.4,-13.89 99.2,-39.69 29.7,-26.79 55.5,-64.49 72.4,-109.14 17.9,-45.64 26.8,-97.24 26.8,-149.82 z"
           style="fill:#b2b2b2;fill-opacity:1;fill-rule:evenodd;stroke:none"
           id="path70" /></g><g
         id="g72"
         transform="scale(11.6871)"><path
           d="M 12225,6034.64 H 8150 v 1375.23 h 8150 V 6034.64 Z"
           style="fill:#d3bba4;fill-opacity:1;fill-rule:evenodd;stroke:none"
           id="path74" /></g><g
         id="g76"
         transform="scale(11.6871)"><path
           d="M 12225,6034.64 H 8150 v 1375.23 h 8150 V 6034.64 Z"
           style="fill:none;stroke:#611729;stroke-width:136.047;stroke-linecap:butt;stroke-linejoin:round;stroke-miterlimit:4;stroke-dasharray:none;stroke-opacity:1"
           id="path78" /></g></g></g></svg>
